<mxfile host="app.diagrams.net" modified="2022-10-06T09:57:14.436Z" agent="5.0 (Windows NT 10.0; Win64; x64) AppleWebKit/537.36 (KHTML, like Gecko) Chrome/105.0.0.0 Safari/537.36" etag="-OfW-NorTJmQFIY3ACpX" version="20.4.0" type="github">
  <diagram id="C5RBs43oDa-KdzZeNtuy" name="Page-1">
    <mxGraphModel dx="2806" dy="1314" grid="1" gridSize="10" guides="1" tooltips="1" connect="1" arrows="0" fold="1" page="1" pageScale="1" pageWidth="827" pageHeight="1169" math="0" shadow="0">
      <root>
        <mxCell id="WIyWlLk6GJQsqaUBKTNV-0" />
        <mxCell id="WIyWlLk6GJQsqaUBKTNV-1" parent="WIyWlLk6GJQsqaUBKTNV-0" />
        <mxCell id="_sFUv83V-Z2-gQJYG4w2-6" style="edgeStyle=orthogonalEdgeStyle;rounded=0;orthogonalLoop=1;jettySize=auto;html=1;exitX=0.5;exitY=1;exitDx=0;exitDy=0;entryX=0.5;entryY=0;entryDx=0;entryDy=0;" edge="1" parent="WIyWlLk6GJQsqaUBKTNV-1" source="_sFUv83V-Z2-gQJYG4w2-0" target="_sFUv83V-Z2-gQJYG4w2-3">
          <mxGeometry relative="1" as="geometry" />
        </mxCell>
        <mxCell id="_sFUv83V-Z2-gQJYG4w2-0" value="num1 = read.nextDouble" style="rounded=0;whiteSpace=wrap;html=1;fillColor=#f8cecc;strokeColor=#b85450;" vertex="1" parent="WIyWlLk6GJQsqaUBKTNV-1">
          <mxGeometry x="198" y="224" width="120" height="60" as="geometry" />
        </mxCell>
        <mxCell id="_sFUv83V-Z2-gQJYG4w2-4" style="edgeStyle=orthogonalEdgeStyle;rounded=0;orthogonalLoop=1;jettySize=auto;html=1;exitX=0.5;exitY=1;exitDx=0;exitDy=0;entryX=0.5;entryY=0;entryDx=0;entryDy=0;" edge="1" parent="WIyWlLk6GJQsqaUBKTNV-1" source="_sFUv83V-Z2-gQJYG4w2-1" target="_sFUv83V-Z2-gQJYG4w2-3">
          <mxGeometry relative="1" as="geometry" />
        </mxCell>
        <mxCell id="_sFUv83V-Z2-gQJYG4w2-1" value="num2 = read.nextDouble" style="rounded=0;whiteSpace=wrap;html=1;fillColor=#f8cecc;strokeColor=#b85450;" vertex="1" parent="WIyWlLk6GJQsqaUBKTNV-1">
          <mxGeometry x="328" y="224" width="120" height="60" as="geometry" />
        </mxCell>
        <mxCell id="_sFUv83V-Z2-gQJYG4w2-5" style="edgeStyle=orthogonalEdgeStyle;rounded=0;orthogonalLoop=1;jettySize=auto;html=1;exitX=0.5;exitY=1;exitDx=0;exitDy=0;" edge="1" parent="WIyWlLk6GJQsqaUBKTNV-1" source="_sFUv83V-Z2-gQJYG4w2-2" target="_sFUv83V-Z2-gQJYG4w2-3">
          <mxGeometry relative="1" as="geometry" />
        </mxCell>
        <mxCell id="_sFUv83V-Z2-gQJYG4w2-2" value="num3 = read.nextDouble" style="rounded=0;whiteSpace=wrap;html=1;fillColor=#f8cecc;strokeColor=#b85450;" vertex="1" parent="WIyWlLk6GJQsqaUBKTNV-1">
          <mxGeometry x="458" y="224" width="120" height="60" as="geometry" />
        </mxCell>
        <mxCell id="_sFUv83V-Z2-gQJYG4w2-8" style="edgeStyle=orthogonalEdgeStyle;rounded=0;orthogonalLoop=1;jettySize=auto;html=1;exitX=0.5;exitY=1;exitDx=0;exitDy=0;entryX=0.5;entryY=0;entryDx=0;entryDy=0;" edge="1" parent="WIyWlLk6GJQsqaUBKTNV-1" source="_sFUv83V-Z2-gQJYG4w2-3" target="_sFUv83V-Z2-gQJYG4w2-7">
          <mxGeometry relative="1" as="geometry" />
        </mxCell>
        <mxCell id="_sFUv83V-Z2-gQJYG4w2-10" style="edgeStyle=orthogonalEdgeStyle;rounded=0;orthogonalLoop=1;jettySize=auto;html=1;exitX=0.5;exitY=1;exitDx=0;exitDy=0;entryX=0.5;entryY=0;entryDx=0;entryDy=0;" edge="1" parent="WIyWlLk6GJQsqaUBKTNV-1" source="_sFUv83V-Z2-gQJYG4w2-3" target="_sFUv83V-Z2-gQJYG4w2-9">
          <mxGeometry relative="1" as="geometry" />
        </mxCell>
        <mxCell id="_sFUv83V-Z2-gQJYG4w2-3" value="if num1 = num2 + num3" style="rhombus;whiteSpace=wrap;html=1;fillColor=#e1d5e7;strokeColor=#9673a6;" vertex="1" parent="WIyWlLk6GJQsqaUBKTNV-1">
          <mxGeometry x="328" y="324" width="120" height="100" as="geometry" />
        </mxCell>
        <mxCell id="_sFUv83V-Z2-gQJYG4w2-25" style="edgeStyle=orthogonalEdgeStyle;rounded=0;orthogonalLoop=1;jettySize=auto;html=1;exitX=0.5;exitY=1;exitDx=0;exitDy=0;entryX=0;entryY=0.5;entryDx=0;entryDy=0;" edge="1" parent="WIyWlLk6GJQsqaUBKTNV-1" source="_sFUv83V-Z2-gQJYG4w2-7" target="_sFUv83V-Z2-gQJYG4w2-20">
          <mxGeometry relative="1" as="geometry" />
        </mxCell>
        <mxCell id="_sFUv83V-Z2-gQJYG4w2-7" value="out (num1 es la suma de num2 + num3)" style="rounded=1;whiteSpace=wrap;html=1;fillColor=#d5e8d4;strokeColor=#82b366;" vertex="1" parent="WIyWlLk6GJQsqaUBKTNV-1">
          <mxGeometry x="218" y="464" width="120" height="60" as="geometry" />
        </mxCell>
        <mxCell id="_sFUv83V-Z2-gQJYG4w2-12" style="edgeStyle=orthogonalEdgeStyle;rounded=0;orthogonalLoop=1;jettySize=auto;html=1;exitX=0.5;exitY=1;exitDx=0;exitDy=0;entryX=0.5;entryY=0;entryDx=0;entryDy=0;" edge="1" parent="WIyWlLk6GJQsqaUBKTNV-1" source="_sFUv83V-Z2-gQJYG4w2-9" target="_sFUv83V-Z2-gQJYG4w2-11">
          <mxGeometry relative="1" as="geometry" />
        </mxCell>
        <mxCell id="_sFUv83V-Z2-gQJYG4w2-14" style="edgeStyle=orthogonalEdgeStyle;rounded=0;orthogonalLoop=1;jettySize=auto;html=1;exitX=0.5;exitY=1;exitDx=0;exitDy=0;entryX=0.5;entryY=0;entryDx=0;entryDy=0;" edge="1" parent="WIyWlLk6GJQsqaUBKTNV-1" source="_sFUv83V-Z2-gQJYG4w2-9" target="_sFUv83V-Z2-gQJYG4w2-13">
          <mxGeometry relative="1" as="geometry" />
        </mxCell>
        <mxCell id="_sFUv83V-Z2-gQJYG4w2-9" value="if num2 = num1 + num3" style="rhombus;whiteSpace=wrap;html=1;fillColor=#e1d5e7;strokeColor=#9673a6;" vertex="1" parent="WIyWlLk6GJQsqaUBKTNV-1">
          <mxGeometry x="388" y="464" width="120" height="100" as="geometry" />
        </mxCell>
        <mxCell id="_sFUv83V-Z2-gQJYG4w2-24" style="edgeStyle=orthogonalEdgeStyle;rounded=0;orthogonalLoop=1;jettySize=auto;html=1;exitX=0.5;exitY=1;exitDx=0;exitDy=0;entryX=0;entryY=0.5;entryDx=0;entryDy=0;" edge="1" parent="WIyWlLk6GJQsqaUBKTNV-1" source="_sFUv83V-Z2-gQJYG4w2-11" target="_sFUv83V-Z2-gQJYG4w2-20">
          <mxGeometry relative="1" as="geometry" />
        </mxCell>
        <mxCell id="_sFUv83V-Z2-gQJYG4w2-11" value="out (num2 es la suma de num1 + num3)" style="rounded=1;whiteSpace=wrap;html=1;fillColor=#d5e8d4;strokeColor=#82b366;" vertex="1" parent="WIyWlLk6GJQsqaUBKTNV-1">
          <mxGeometry x="298" y="604" width="120" height="60" as="geometry" />
        </mxCell>
        <mxCell id="_sFUv83V-Z2-gQJYG4w2-16" style="edgeStyle=orthogonalEdgeStyle;rounded=0;orthogonalLoop=1;jettySize=auto;html=1;exitX=0.5;exitY=1;exitDx=0;exitDy=0;entryX=0.5;entryY=0;entryDx=0;entryDy=0;" edge="1" parent="WIyWlLk6GJQsqaUBKTNV-1" source="_sFUv83V-Z2-gQJYG4w2-13" target="_sFUv83V-Z2-gQJYG4w2-15">
          <mxGeometry relative="1" as="geometry" />
        </mxCell>
        <mxCell id="_sFUv83V-Z2-gQJYG4w2-19" style="edgeStyle=orthogonalEdgeStyle;rounded=0;orthogonalLoop=1;jettySize=auto;html=1;exitX=0.5;exitY=1;exitDx=0;exitDy=0;entryX=0.5;entryY=0;entryDx=0;entryDy=0;" edge="1" parent="WIyWlLk6GJQsqaUBKTNV-1" source="_sFUv83V-Z2-gQJYG4w2-13" target="_sFUv83V-Z2-gQJYG4w2-18">
          <mxGeometry relative="1" as="geometry" />
        </mxCell>
        <mxCell id="_sFUv83V-Z2-gQJYG4w2-13" value="if num3 = num1 + num2" style="rhombus;whiteSpace=wrap;html=1;fillColor=#e1d5e7;strokeColor=#9673a6;" vertex="1" parent="WIyWlLk6GJQsqaUBKTNV-1">
          <mxGeometry x="438" y="604" width="120" height="100" as="geometry" />
        </mxCell>
        <mxCell id="_sFUv83V-Z2-gQJYG4w2-21" style="edgeStyle=orthogonalEdgeStyle;rounded=0;orthogonalLoop=1;jettySize=auto;html=1;exitX=0.5;exitY=1;exitDx=0;exitDy=0;entryX=1;entryY=0.5;entryDx=0;entryDy=0;" edge="1" parent="WIyWlLk6GJQsqaUBKTNV-1" source="_sFUv83V-Z2-gQJYG4w2-15" target="_sFUv83V-Z2-gQJYG4w2-20">
          <mxGeometry relative="1" as="geometry" />
        </mxCell>
        <mxCell id="_sFUv83V-Z2-gQJYG4w2-15" value="out (num3 es la suma de num1 + num2)" style="rounded=1;whiteSpace=wrap;html=1;fillColor=#d5e8d4;strokeColor=#82b366;" vertex="1" parent="WIyWlLk6GJQsqaUBKTNV-1">
          <mxGeometry x="368" y="749" width="120" height="60" as="geometry" />
        </mxCell>
        <mxCell id="_sFUv83V-Z2-gQJYG4w2-23" style="edgeStyle=orthogonalEdgeStyle;rounded=0;orthogonalLoop=1;jettySize=auto;html=1;exitX=0.5;exitY=1;exitDx=0;exitDy=0;entryX=1;entryY=0.5;entryDx=0;entryDy=0;" edge="1" parent="WIyWlLk6GJQsqaUBKTNV-1" source="_sFUv83V-Z2-gQJYG4w2-18" target="_sFUv83V-Z2-gQJYG4w2-20">
          <mxGeometry relative="1" as="geometry" />
        </mxCell>
        <mxCell id="_sFUv83V-Z2-gQJYG4w2-18" value="out (Ninguno de los nÃºmeros es la suma de los otros dos)" style="rounded=1;whiteSpace=wrap;html=1;fillColor=#d5e8d4;strokeColor=#82b366;" vertex="1" parent="WIyWlLk6GJQsqaUBKTNV-1">
          <mxGeometry x="508" y="749" width="120" height="60" as="geometry" />
        </mxCell>
        <mxCell id="_sFUv83V-Z2-gQJYG4w2-26" style="edgeStyle=orthogonalEdgeStyle;rounded=0;orthogonalLoop=1;jettySize=auto;html=1;exitX=0.5;exitY=1;exitDx=0;exitDy=0;" edge="1" parent="WIyWlLk6GJQsqaUBKTNV-1" source="_sFUv83V-Z2-gQJYG4w2-20">
          <mxGeometry relative="1" as="geometry">
            <mxPoint x="398" y="944" as="targetPoint" />
          </mxGeometry>
        </mxCell>
        <mxCell id="_sFUv83V-Z2-gQJYG4w2-20" value="" style="ellipse;whiteSpace=wrap;html=1;aspect=fixed;fillColor=#f5f5f5;fontColor=#333333;strokeColor=#666666;" vertex="1" parent="WIyWlLk6GJQsqaUBKTNV-1">
          <mxGeometry x="388" y="904" width="20" height="20" as="geometry" />
        </mxCell>
      </root>
    </mxGraphModel>
  </diagram>
</mxfile>
